<svg xmlns="http://www.w3.org/2000/svg" viewBox="0 0 1600 720"><defs><linearGradient id="sky" x2="0" y2="1"><stop stop-color="#dff5ff"/><stop offset=".55" stop-color="#9bd5f4"/><stop offset="1" stop-color="#d9f3ff"/></linearGradient><linearGradient id="lake" x2="0" y2="1"><stop stop-color="#68b9e7"/><stop offset="1" stop-color="#d8f4ff"/></linearGradient></defs><rect width="1600" height="720" fill="url(#sky)"/><circle cx="230" cy="125" r="72" fill="#fff" opacity=".58"/><path d="M0 360L170 185l115 108 155-213 170 235 112-125 151 162 150-211 183 207 123-147 211 199v320H0z" fill="#5e9dcc" opacity=".9"/><path d="M0 403l187-135 108 84 160-183 155 194 128-116 151 131 141-167 169 176 128-110 173 132v311H0z" fill="#cfeafa"/><path d="M0 435h1600v285H0z" fill="url(#lake)"/><path d="M0 496c210-45 380 36 590 1s350-18 520 9 311-6 490-24v238H0z" fill="#a7ddf5" opacity=".55"/><g fill="#286c8c" opacity=".72"><path d="M50 390l30-105 30 105z"/><path d="M105 405l36-132 36 132z"/><path d="M1410 400l34-130 34 130z"/><path d="M1470 412l43-154 43 154z"/></g></svg>